<svg width="500" height="500" viewBox="0 0 500 500" fill="none" xmlns="http://www.w3.org/2000/svg">
<path d="M250 0C388.071 0 500 111.929 500 250C500 388.071 388.071 500 250 500C111.929 500 0 388.071 0 250C0 111.929 111.929 0 250 0ZM206.265 250.945C196.933 241.614 181.704 241.283 172.253 250.734L146.326 276.661C145.284 274.866 143.997 273.178 142.468 271.648C133.137 262.317 117.907 261.986 108.456 271.437L94.3721 285.521C61.5877 318.305 62.2971 371.744 95.4287 404.876C128.561 438.008 182 438.717 214.785 405.933L249.993 370.725C259.444 361.273 259.114 346.044 249.782 336.713C248.253 335.183 246.564 333.897 244.769 332.854L249.57 328.052C259.021 318.601 258.691 303.373 249.359 294.041C246.975 291.657 244.206 289.86 241.247 288.664C243.322 280.622 241.112 271.71 234.854 265.451C228.595 259.192 219.683 256.982 211.641 259.058C210.445 256.099 208.648 253.329 206.265 250.945ZM184.929 263.41C187.144 261.195 191.021 261.051 193.59 263.62C196.079 266.109 196.023 269.826 194.003 272.07L193.801 272.282L155.071 311.011C151.572 314.511 151.572 320.186 155.071 323.686C158.571 327.186 164.247 327.186 167.747 323.686L213.518 277.915C215.733 275.699 219.61 275.558 222.179 278.127C224.747 280.696 224.605 284.571 222.39 286.787L176.619 332.558C173.119 336.058 173.119 341.733 176.619 345.233C180.119 348.733 185.795 348.733 189.295 345.233L228.023 306.505C230.239 304.289 234.116 304.147 236.685 306.716C239.253 309.285 239.111 313.161 236.896 315.377L198.167 354.106C194.667 357.607 194.667 363.281 198.167 366.781C201.667 370.281 207.342 370.281 210.842 366.781L228.445 349.177L228.658 348.976C230.902 346.955 234.619 346.899 237.107 349.388C239.676 351.957 239.534 355.834 237.318 358.05L202.11 393.258C176.561 418.807 134.473 418.571 108.104 392.201C81.7342 365.832 81.4988 323.744 107.048 298.195L121.131 284.112C123.346 281.897 127.224 281.753 129.793 284.322C132.282 286.811 132.226 290.529 130.206 292.772L130.003 292.984L112.399 310.588C108.899 314.088 108.899 319.764 112.399 323.264C115.9 326.764 121.575 326.764 125.075 323.264L184.929 263.41ZM405.598 95.4287C372.466 62.2969 319.026 61.5882 286.241 94.373L251.033 129.581C241.582 139.032 241.913 154.261 251.244 163.593C252.774 165.122 254.463 166.409 256.258 167.451L251.456 172.253C242.005 181.704 242.336 196.933 251.667 206.265C254.051 208.649 256.82 210.446 259.779 211.642C257.704 219.684 259.914 228.596 266.173 234.854C272.432 241.113 281.344 243.323 289.386 241.248C290.582 244.207 292.378 246.976 294.762 249.359C304.093 258.691 319.322 259.022 328.773 249.57L354.7 223.644C355.743 225.439 357.029 227.128 358.559 228.657C367.89 237.988 383.119 238.319 392.57 228.868L406.654 214.785C439.439 182 438.73 128.561 405.598 95.4287ZM298.916 107.047C324.465 81.4979 366.553 81.7342 392.923 108.104C419.292 134.473 419.528 176.56 393.979 202.109L379.896 216.193C377.68 218.409 373.802 218.551 371.233 215.982C368.745 213.494 368.801 209.777 370.82 207.533L371.023 207.321L388.627 189.718C392.127 186.218 392.127 180.542 388.627 177.042C385.127 173.542 379.451 173.542 375.951 177.042L316.098 236.896C313.882 239.111 310.005 239.253 307.437 236.685C304.948 234.196 305.003 230.48 307.023 228.235L307.226 228.023L345.955 189.295C349.455 185.795 349.455 180.119 345.955 176.619C342.455 173.119 336.779 173.119 333.279 176.619L287.509 222.39C285.293 224.605 281.417 224.748 278.848 222.179C276.279 219.61 276.421 215.733 278.637 213.518L324.407 167.747C327.907 164.247 327.907 158.572 324.407 155.072C320.907 151.572 315.232 151.572 311.731 155.072L273.003 193.801C270.787 196.016 266.911 196.159 264.342 193.59C261.773 191.021 261.915 187.143 264.131 184.928L302.859 146.199C306.359 142.699 306.359 137.024 302.859 133.524C299.359 130.025 293.685 130.025 290.185 133.524L272.581 151.128L272.368 151.33C270.124 153.35 266.408 153.407 263.919 150.918C261.35 148.349 261.492 144.472 263.708 142.256L298.916 107.047Z" fill="white"/>
</svg>
