<svg width="164" height="163" viewBox="0 0 164 163" fill="none" xmlns="http://www.w3.org/2000/svg">
<g clip-path="url(#clip0_79_79)">
<path d="M140.012 23.8495C108.022 -7.94855 55.9748 -7.94855 23.991 23.8418C-7.99906 55.6322 -7.99596 107.364 23.9941 139.16C55.9748 170.949 108.022 170.949 140.009 139.154C171.996 107.364 171.994 55.6353 140.012 23.8495ZM131.061 130.263C104.009 157.149 59.9922 157.152 32.9395 130.266C5.88216 103.375 5.88525 59.6219 32.9395 32.7357C59.9906 5.8511 104.006 5.84802 131.064 32.7388C158.115 59.625 158.112 103.378 131.061 130.263ZM119.092 113.731C120.11 116.068 119.027 118.781 116.677 119.791C114.325 120.805 111.596 119.726 110.578 117.39C106.105 107.11 95.5325 100.466 83.6399 100.466C71.4735 100.466 60.8364 107.104 56.5454 117.378C55.8048 119.151 54.0775 120.223 52.2606 120.223C51.6668 120.223 51.0653 120.109 50.4824 119.869C48.1165 118.892 46.9954 116.193 47.9773 113.843C53.7141 100.116 67.7144 91.2463 83.6399 91.2463C99.2328 91.2463 113.15 100.071 119.092 113.731ZM51.3993 59.4329C51.3993 54.1706 55.6934 49.9027 60.988 49.9027C66.281 49.9027 70.5751 54.1691 70.5751 59.4329C70.5751 64.6982 66.281 68.9646 60.988 68.9646C55.6934 68.9646 51.3993 64.6982 51.3993 59.4329ZM94.8769 59.4329C94.8769 54.1706 99.1741 49.9027 104.469 49.9027C109.762 49.9027 114.056 54.1691 114.056 59.4329C114.056 64.6982 109.763 68.9646 104.469 68.9646C99.1741 68.9646 94.8769 64.6982 94.8769 59.4329Z" fill="#A4A4A4"/>
</g>
<defs>
<clipPath id="clip0_79_79">
<rect width="164" height="163" fill="white"/>
</clipPath>
</defs>
</svg>
